<svg xmlns="http://www.w3.org/2000/svg" width="24" height="24" viewBox="0 0 24 24" fill="none">
<rect width="24" height="24" fill="#7B61FF"/>
<path d="M17 3.00943C17.2547 2.70846 17.5697 2.46348 17.925 2.29011C18.2803 2.11673 18.6681 2.01876 19.0636 2.00244C19.4592 1.98612 19.8538 2.05181 20.2224 2.19531C20.5909 2.33882 20.9254 2.557 21.2043 2.83595C21.4833 3.11489 21.7006 3.44849 21.8425 3.81547C21.9845 4.18245 22.0478 4.57476 22.0286 4.9674C22.0094 5.36005 21.908 5.74441 21.7309 6.09599C21.5538 6.44757 21.3049 6.75866 21 7.00943L7.5 20.5094L2 22.0094L3.5 16.5094L17 3.00943Z" stroke="white" stroke-linecap="round" stroke-linejoin="round"/>
<path d="M15 5.00928L19 9.00928" stroke="white" stroke-linecap="round" stroke-linejoin="round"/>
</svg>