<svg xmlns="http://www.w3.org/2000/svg" width="24" height="23" viewBox="0 0 24 23" fill="none">
<path d="M10.125 4.67188V5.03125H13.875V4.67188C13.875 4.19531 13.6775 3.73827 13.3258 3.40129C12.9742 3.06431 12.4973 2.875 12 2.875C11.5027 2.875 11.0258 3.06431 10.6742 3.40129C10.3225 3.73827 10.125 4.19531 10.125 4.67188ZM8.625 5.03125V4.67188C8.625 3.81407 8.98058 2.99139 9.61351 2.38483C10.2464 1.77826 11.1049 1.4375 12 1.4375C12.8951 1.4375 13.7535 1.77826 14.3865 2.38483C15.0194 2.99139 15.375 3.81407 15.375 4.67188V5.03125H21C21.1989 5.03125 21.3897 5.10698 21.5303 5.24177C21.671 5.37656 21.75 5.55938 21.75 5.75C21.75 5.94062 21.671 6.12344 21.5303 6.25823C21.3897 6.39302 21.1989 6.46875 21 6.46875H19.869L18.45 18.377C18.3454 19.254 17.9076 20.0634 17.2201 20.6509C16.5326 21.2384 15.6436 21.5629 14.7225 21.5625H9.2775C8.3564 21.5629 7.46735 21.2384 6.77989 20.6509C6.09243 20.0634 5.65464 19.254 5.55 18.377L4.131 6.46875H3C2.80109 6.46875 2.61032 6.39302 2.46967 6.25823C2.32902 6.12344 2.25 5.94062 2.25 5.75C2.25 5.55938 2.32902 5.37656 2.46967 5.24177C2.61032 5.10698 2.80109 5.03125 3 5.03125H8.625ZM7.041 18.2131C7.10362 18.7392 7.36602 19.2248 7.77819 19.5774C8.19037 19.93 8.7235 20.1249 9.276 20.125H14.7233C15.2757 20.1249 15.8089 19.93 16.2211 19.5774C16.6332 19.2248 16.8956 18.7392 16.9583 18.2131L18.36 6.46875H5.64075L7.041 18.2131ZM9.75 8.98438C9.94891 8.98438 10.1397 9.0601 10.2803 9.19489C10.421 9.32968 10.5 9.5125 10.5 9.70312V16.8906C10.5 17.0812 10.421 17.2641 10.2803 17.3989C10.1397 17.5336 9.94891 17.6094 9.75 17.6094C9.55109 17.6094 9.36032 17.5336 9.21967 17.3989C9.07902 17.2641 9 17.0812 9 16.8906V9.70312C9 9.5125 9.07902 9.32968 9.21967 9.19489C9.36032 9.0601 9.55109 8.98438 9.75 8.98438ZM15 9.70312C15 9.5125 14.921 9.32968 14.7803 9.19489C14.6397 9.0601 14.4489 8.98438 14.25 8.98438C14.0511 8.98438 13.8603 9.0601 13.7197 9.19489C13.579 9.32968 13.5 9.5125 13.5 9.70312V16.8906C13.5 17.0812 13.579 17.2641 13.7197 17.3989C13.8603 17.5336 14.0511 17.6094 14.25 17.6094C14.4489 17.6094 14.6397 17.5336 14.7803 17.3989C14.921 17.2641 15 17.0812 15 16.8906V9.70312Z" fill="#747474"/>
</svg>