<svg xmlns="http://www.w3.org/2000/svg" width="80" height="80" viewBox="0 0 80 80" fill="none">
<path d="M64.7484 27.8634L71.1251 40.6168C71.6988 41.8232 71.8211 43.1954 71.4698 44.4843C71.1184 45.7731 70.3167 46.8934 69.2101 47.6418L32.2151 65.5084C31.0304 66.1314 29.6468 66.2583 28.3685 65.8614C27.0902 65.4645 26.0219 64.5762 25.3984 63.3918C25.3206 63.2462 25.2512 63.0968 25.1901 62.9434L10.1401 32.4368C9.26833 30.9531 8.69735 29.3122 8.45974 27.6078C8.22213 25.9034 8.32256 24.1689 8.75528 22.5033C9.6292 19.1396 11.8036 16.2607 14.8001 14.5001C17.7966 12.7395 21.3698 12.2414 24.7335 13.1153C28.0973 13.9892 30.9762 16.1636 32.7368 19.1601L57.0901 70.6018M59.0034 9.39845C60.2583 9.39845 61.4851 9.77058 62.5285 10.4678C63.5719 11.165 64.3852 12.1559 64.8654 13.3153C65.3457 14.4747 65.4713 15.7505 65.2265 16.9813C64.9817 18.2121 64.3774 19.3427 63.49 20.23C62.6027 21.1174 61.4721 21.7217 60.2413 21.9665C59.0105 22.2114 57.7347 22.0857 56.5753 21.6055C55.4159 21.1252 54.4249 20.312 53.7277 19.2685C53.0306 18.2251 52.6584 16.9984 52.6584 15.7434C52.6569 14.9098 52.82 14.084 53.1383 13.3135C53.4566 12.543 53.9239 11.8429 54.5134 11.2534C55.1029 10.6639 55.803 10.1966 56.5735 9.8783C57.344 9.55998 58.1698 9.39691 59.0034 9.39845Z" stroke="#CACACA" stroke-linecap="round" stroke-linejoin="round"/>
</svg>